<?xml version="1.0" encoding="UTF-8"?>
<svg width="193px" height="64px" viewBox="0 0 193 64" version="1.1" xmlns="http://www.w3.org/2000/svg" xmlns:xlink="http://www.w3.org/1999/xlink">
    <!-- Generator: Sketch 58 (84663) - https://sketch.com -->
    <title>Langara at Musqueam logo - hex</title>
    <desc>Created with Sketch.</desc>
    <g id="Page-1" stroke="none" stroke-width="1" fill="none" fill-rule="evenodd">
        <g id="Langara-at-Musqueam-logo---hex" fill-rule="nonzero">
            <path d="M0,32.83 L0,29.73 L3,29.39 C3.66,29.29 3.76,29.14 3.76,28.39 L3.76,4.39 C3.76,3.67 3.66,3.47 3,3.39 L0,3.05 L0,0 L14,0 L14,3.15 L10.06,3.54 C9.34,3.59 9.3,3.79 9.3,4.46 L9.3,28.67 L19.92,28.67 C20.45,28.67 20.59,28.67 20.69,28.13 L21.45,23.52 L25.45,23.52 L25.45,32.79 L0,32.83 Z" id="Path" fill="#F15A22"></path>
            <path d="M44.61,32.83 L44.14,29.97 L43.99,29.97 C41.8122885,32.2427024 38.787283,33.507046 35.64,33.46 C29.64,33.46 28.86,29.29 28.86,26.57 C28.86,21.72 31.8,19.38 37.59,18.9 L43.59,18.41 L43.59,15.89 C43.59,12.83 43.07,11.18 39.42,11.18 C36.81,11.18 35.05,11.37 35.05,14.72 L29.93,14.24 C29.93,8.02 35.48,7.24 39.51,7.24 C46.39,7.24 48.96,9.24 48.96,15.93 L48.96,28.42 C48.96,29.19 48.96,29.29 49.72,29.42 L52.04,29.76 L52.04,32.86 L44.61,32.83 Z M43.61,21.91 L39.11,22.3 C35.55,22.64 34.46,23.66 34.46,25.99 C34.46,28.32 35.55,29.1 37.46,29.1 C39.7953027,28.9335148 41.9813773,27.8904857 43.58,26.18 L43.61,21.91 Z" id="Shape" fill="#F15A22"></path>
            <path d="M70.71,32.83 L70.71,29.77 L73.08,29.48 C73.74,29.39 73.84,29.1 73.84,28.48 L73.84,17.25 C73.84,14.33 73.51,11.9 70.47,11.9 C68.0984438,12.0715252 65.8334726,12.9531217 63.97,14.43 L63.97,28.43 C63.97,29.2 63.97,29.3 64.73,29.43 L67.24,29.77 L67.24,32.87 L55.48,32.87 L55.48,29.67 L57.75,29.38 C58.42,29.28 58.51,29.13 58.51,28.38 L58.51,12.78 C58.51,12.24 58.37,11.9 57.9,11.78 L55.3,10.84 L55.77,7.73 L62.77,7.73 L63.15,10.4 L63.34,10.45 C65.8858594,8.46749369 68.9949422,7.34360228 72.22,7.24 C77.34,7.24 79.29,10.54 79.29,16.13 L79.29,28.42 C79.29,29.19 79.29,29.29 80.04,29.42 L82.66,29.76 L82.66,32.86 L70.71,32.83 Z" id="Path" fill="#F15A22"></path>
            <path d="M104.92,11.56 C106.078652,12.9692173 106.71456,14.7356263 106.72,16.56 C106.72,22.19 102.36,25.3 96.8,25.3 C95.4527905,25.3376439 94.1068142,25.1895865 92.8,24.86 L90.61,28.55 L96.45,28.84 C104.9,29.28 108.93,29.72 108.93,35.59 C108.93,40.74 104.56,43.75 96.31,43.75 C88.06,43.75 84.97,41.47 84.97,37.75 C84.97,35.42 86.25,34.02 87.86,32.46 C86.5744765,32.0183231 85.7030319,30.8190875 85.68,29.46 C85.7027969,28.4202859 86.129628,27.4303248 86.87,26.7 C87.62,25.82 88.62,24.61 89.48,23.7 C87.3,22.49 85.8,19.97 85.8,16.57 C85.8,11.18 89.5,7.24 96.28,7.24 C97.7814283,7.21358735 99.2801196,7.37824177 100.74,7.73 L109.38,7.73 L109.38,11.27 L104.92,11.56 Z M91.63,33.56 C90.6466307,34.4446733 90.0088357,35.6493972 89.83,36.96 C89.83,39.2 92.34,39.96 96.47,39.96 C98.89,39.96 103.47,39.58 103.47,36.47 C103.47,34.33 101.67,34.23 98.92,34.04 L91.63,33.56 Z M96.56,11.23 C93.39,11.23 91.06,12.88 91.06,16.52 C91.06,19.29 92.53,21.38 96.42,21.38 C99.7,21.38 101.88,19.43 101.88,16.38 C101.88,13.02 99.89,11.18 96.56,11.18 L96.56,11.23 Z" id="Shape" fill="#F15A22"></path>
            <path d="M127.5,32.83 L127.03,29.97 L126.89,29.97 C124.71159,32.241684 121.687049,33.5058334 118.54,33.46 C112.54,33.46 111.75,29.29 111.75,26.57 C111.75,21.72 114.69,19.38 120.48,18.9 L126.48,18.41 L126.48,15.89 C126.48,12.83 125.96,11.18 122.3,11.18 C119.69,11.18 117.93,11.37 117.93,14.72 L112.81,14.24 C112.81,8.02 118.36,7.24 122.4,7.24 C129.27,7.24 131.84,9.24 131.84,15.93 L131.84,28.42 C131.84,29.19 131.89,29.29 132.6,29.42 L134.92,29.76 L134.92,32.86 L127.5,32.83 Z M126.5,21.91 L121.99,22.3 C118.43,22.64 117.34,23.66 117.34,25.99 C117.34,28.32 118.43,29.1 120.34,29.1 C122.674021,28.9286732 124.85842,27.8864439 126.46,26.18 L126.5,21.91 Z" id="Shape" fill="#F15A22"></path>
            <path d="M138.23,32.83 L138.23,29.67 L140.5,29.38 C141.17,29.28 141.26,29.13 141.26,28.38 L141.26,12.78 C141.3256,12.3399182 141.063349,11.916933 140.64,11.78 L138.04,10.86 L138.51,7.75 L145.58,7.75 L146.1,11.29 L146.25,11.29 C147.81,9.2 150.04,7.21 153.25,7.21 C154.495859,7.21860461 155.736869,7.36618415 156.95,7.65 L156.95,15.65 L152.68,15.46 L152.11,12.46 C152.06,12.02 151.97,11.92 151.54,11.92 C149.74,11.92 147.7,13.53 146.75,14.45 L146.75,28.37 C146.75,29.14 146.85,29.29 147.56,29.37 L152.01,29.76 L152.01,32.86 L138.23,32.83 Z" id="Path" fill="#F15A22"></path>
            <path d="M175.3,32.83 L174.83,29.97 L174.68,29.97 C172.502288,32.2427024 169.477283,33.507046 166.33,33.46 C160.33,33.46 159.55,29.29 159.55,26.57 C159.55,21.72 162.49,19.38 168.28,18.9 L174.28,18.41 L174.28,15.89 C174.28,12.83 173.75,11.18 170.1,11.18 C167.49,11.18 165.74,11.37 165.74,14.72 L160.61,14.24 C160.61,8.02 166.16,7.24 170.2,7.24 C177.08,7.24 179.64,9.24 179.64,15.93 L179.64,28.42 C179.64,29.19 179.64,29.29 180.4,29.42 L182.72,29.76 L182.72,32.86 L175.3,32.83 Z M174.3,21.91 L169.79,22.3 C166.23,22.64 165.13,23.66 165.13,25.99 C165.13,28.32 166.23,29.1 168.13,29.1 C170.481673,28.9409748 172.686008,27.8977561 174.3,26.18 L174.3,21.91 Z" id="Shape" fill="#F15A22"></path>
            <path d="M189.84,33.41 C187.9,33.41 186.91,32.49 186.91,30.62 C186.91,28.75 187.91,27.83 189.84,27.83 C191.77,27.83 192.73,28.83 192.73,30.62 C192.73,32.41 191.74,33.41 189.84,33.41 Z" id="Path" fill="#F15A22"></path>
            <path d="M2.49,51.05 C3.00309169,51.0345219 3.51287772,51.1371634 3.98,51.35 C4.36088323,51.536866 4.67762864,51.8327271 4.89,52.2 C5.10782842,52.5800273 5.21842658,53.0120514 5.21,53.45 C5.21,53.7342712 5.16959595,54.0170996 5.09,54.29 C5.01270113,54.5787446 4.88764175,54.8525232 4.72,55.1 C4.53271018,55.3859866 4.30348069,55.6421842 4.04,55.86 C3.7349814,56.1201599 3.39912759,56.3418234 3.04,56.52 L3.04,60.23 L1.45,60.23 L1.45,55.81 C1.7996736,55.690759 2.13505428,55.5331301 2.45,55.34 C2.70298719,55.1878103 2.93212351,54.9991098 3.13,54.78 C3.29309569,54.5942484 3.42177495,54.3809117 3.51,54.15 C3.59135672,53.946187 3.6353911,53.7294024 3.64,53.51 C3.64660482,53.285198 3.59856378,53.0621503 3.5,52.86 C3.40312968,52.6792159 3.25301309,52.5325903 3.07,52.44 C2.8489148,52.3334105 2.60530609,52.2819439 2.36,52.29 C2.14692695,52.291782 1.93504909,52.3220503 1.73,52.38 C1.52404276,52.4401177 1.32336874,52.5170427 1.13,52.61 C0.957943043,52.6831708 0.793766472,52.7736354 0.64,52.88 L0.08,51.77 C0.426660984,51.5417372 0.803681299,51.3633258 1.2,51.24 C1.61730193,51.109088 2.05267462,51.0449633 2.49,51.05 L2.49,51.05 Z" id="Path" fill="#636466"></path>
            <path d="M8.66,53.6 C9.24353824,53.5882701 9.82190139,53.7114717 10.35,53.96 C10.8347302,54.2044904 11.2326726,54.5919607 11.49,55.07 C11.7815198,55.6454377 11.9225707,56.2853273 11.9,56.93 C11.9200859,57.5701003 11.7935266,58.2063172 11.53,58.79 C11.3052554,59.273883 10.9391739,59.6783159 10.48,59.95 C9.99807694,60.2209699 9.4528049,60.3590134 8.9,60.35 C8.3721773,60.3609085 7.84989875,60.240647 7.38,60 C6.94910102,59.7810835 6.59891647,59.430899 6.38,59 C6.13936083,58.505429 6.02267131,57.9597339 6.04,57.41 L6.04,56.63 L10.32,56.63 C10.3385116,56.1333902 10.1627391,55.6491188 9.83,55.28 C9.47325454,54.9411202 8.99093916,54.7670515 8.5,54.8 C8.1271297,54.7968392 7.75499751,54.8337172 7.39,54.91 C7.04646646,54.9995142 6.71176155,55.120008 6.39,55.27 L6.39,54.07 C6.70930369,53.9213288 7.04492421,53.810574 7.39,53.74 C7.80656177,53.6447732 8.232698,53.5977976 8.66,53.6 L8.66,53.6 Z M7.53,57.67 C7.53281137,57.9410909 7.58710765,58.2091787 7.69,58.46 C7.77553146,58.684841 7.9294181,58.8771993 8.13,59.01 C8.35503046,59.1486501 8.61581172,59.2181917 8.88,59.21 C9.25616594,59.2316092 9.62250685,59.0850728 9.88,58.81 C10.1436553,58.4877232 10.2915484,58.0862992 10.3,57.67 L7.53,57.67 Z" id="Shape" fill="#636466"></path>
            <path d="M14.79,60.23 L17.56,53.99 L17.38,53.49 L16.15,53.85 L15.88,52.97 L16.95,52.67 C16.8468189,52.5463764 16.7120315,52.453062 16.56,52.4 C16.3992651,52.3444145 16.2300541,52.3173407 16.06,52.32 C15.9469018,52.3096756 15.8330982,52.3096756 15.72,52.32 L15.44,52.32 L15.44,51.13 L15.7,51.13 C15.81,51.13 15.92,51.13 16.03,51.13 L16.34,51.13 C16.6490324,51.1253863 16.9566449,51.1727113 17.25,51.27 C17.4918555,51.3460616 17.711528,51.4799245 17.89,51.66 C18.0866144,51.8456606 18.2520637,52.0617577 18.38,52.3 L19.57,51.93 L19.84,52.84 L18.75,53.16 L20.58,58.16 C20.6658552,58.4448004 20.8012621,58.7122289 20.98,58.95 C21.093573,59.0734426 21.2523171,59.1455991 21.42,59.15 L21.61,59.15 L21.8,59.15 L21.8,60.3 C21.6742018,60.3617981 21.5390415,60.4023461 21.4,60.42 C21.2349427,60.4500398 21.0677373,60.4667603 20.9,60.47 C20.6593317,60.4740184 20.4206098,60.426274 20.2,60.33 C20.0088413,60.2388035 19.846299,60.0970113 19.73,59.92 C19.5974664,59.7170562 19.4900164,59.4987984 19.41,59.27 L18.73,57.35 L18.58,56.93 C18.58,56.78 18.49,56.64 18.44,56.5 C18.392229,56.3691225 18.3521605,56.2355607 18.32,56.1 C18.32,55.98 18.26,55.87 18.24,55.77 L18.19,55.77 C18.12,56.01 18.05,56.26 17.95,56.54 C17.85,56.82 17.76,57.07 17.66,57.3 L16.35,60.3 L14.79,60.23 Z" id="Path" fill="#636466"></path>
            <polygon id="Path" fill="#636466" points="27.92 57.04 30.07 60.23 28.58 60.23 27.08 58.01 25.65 60.23 24.3 60.23 26.37 57.06 24.29 54.06 25.79 54.06 27.19 56.18 28.65 54.06 29.99 54.06"></polygon>
            <path d="M33.84,55.1 C33.84,55.0066667 33.81,54.8966667 33.75,54.77 L33.63,54.34 C33.63,54.19 33.56,54.05 33.52,53.93 C33.48,53.81 33.52,53.7 33.45,53.64 L33.45,53.64 C33.45,53.7 33.45,53.8 33.38,53.93 C33.31,54.06 33.31,54.19 33.27,54.34 C33.23,54.49 33.2,54.63 33.17,54.77 C33.142285,54.8860367 33.1055054,54.9997191 33.06,55.11 L32.57,56.78 L31.47,56.78 L30.3,52.87 L31.3,52.87 L31.83,54.74 C31.83,54.87 31.89,55.01 31.92,55.17 C31.958587,55.3181541 31.9886364,55.4684013 32.01,55.62 C32.01,55.7666667 32.03,55.8866667 32.07,55.98 L32.07,55.98 C32.07,55.8866667 32.09,55.7666667 32.13,55.62 L32.22,55.19 C32.22,55.05 32.28,54.95 32.3,54.87 L32.91,52.87 L33.98,52.87 L34.57,54.87 C34.57,54.95 34.57,55.06 34.65,55.2 C34.73,55.34 34.71,55.48 34.74,55.62 C34.77,55.76 34.74,55.88 34.74,55.98 L34.74,55.98 C34.74,55.9 34.74,55.79 34.8,55.64 C34.86,55.49 34.86,55.34 34.89,55.18 C34.92,55.02 34.97,54.87 35.01,54.74 L35.53,52.87 L36.53,52.87 L35.33,56.78 L34.3,56.78 L33.84,55.1 Z" id="Path" fill="#636466"></path>
            <path d="M38.95,60.23 L37.57,60.23 L37.57,54.03 L38.76,54.03 L38.76,54.66 C39.3196084,54.1832012 40.0251305,53.9115752 40.76,53.89 C41.4008433,53.7918609 42.031596,54.1193671 42.32,54.7 C42.886655,54.1842148 43.6237762,53.8957761 44.39,53.89 C45.67,53.89 46.19,54.6 46.19,55.99 L46.19,60.23 L44.88,60.23 L44.88,56.23 C44.88,55.49 44.7,55.07 44.02,55.07 C43.5014377,55.1161733 43.011065,55.326333 42.62,55.67 C42.62,55.77 42.62,55.89 42.62,56 L42.62,60.26 L41.3,60.26 L41.3,56.26 C41.3,55.52 41.13,55.1 40.45,55.1 C39.9108813,55.146194 39.4016633,55.3674404 39,55.73 L38.95,60.23 Z" id="Path" fill="#636466"></path>
            <path d="M50.22,53.6 C50.8004547,53.5868896 51.3758841,53.7101959 51.9,53.96 C52.3886634,54.1989403 52.788116,54.587881 53.04,55.07 C53.3396609,55.6428186 53.4844431,56.2839967 53.46,56.93 C53.4773074,57.5709075 53.3473042,58.2072389 53.08,58.79 C52.8613595,59.2778984 52.4937756,59.6839911 52.03,59.95 C51.551741,60.2210535 51.0096523,60.3591653 50.46,60.35 C49.9320473,60.3621759 49.4094614,60.2418436 48.94,60 C48.5078512,59.7828099 48.1571901,59.4321488 47.94,59 C47.7041345,58.5037968 47.587695,57.9592711 47.6,57.41 L47.6,56.63 L51.89,56.63 C51.8994422,56.1348539 51.7248422,55.6538133 51.4,55.28 C51.0382522,54.9426907 50.5536438,54.7690996 50.06,54.8 C49.6871779,54.7978899 49.3151565,54.8347569 48.95,54.91 C48.6064665,54.9995142 48.2717615,55.120008 47.95,55.27 L47.95,54.07 C48.2698881,53.9228086 48.6053353,53.812111 48.95,53.74 C49.3666058,53.6450342 49.7927119,53.5980619 50.22,53.6 Z M49.09,57.67 C49.0944392,57.9399753 49.1451755,58.2071865 49.24,58.46 C49.3293492,58.6855545 49.4866049,58.8777559 49.69,59.01 C49.9119288,59.1473028 50.1691207,59.2168141 50.43,59.21 C50.8057115,59.2288525 51.1709347,59.0827632 51.43,58.81 C51.7008678,58.4903969 51.8559054,58.0887086 51.87,57.67 L49.09,57.67 Z" id="Shape" fill="#636466"></path>
            <path d="M57.69,60.35 C57.0779381,60.3706522 56.4786185,60.1720611 56,59.79 C55.518499,59.3649782 55.1710472,58.8090554 55,58.19 C54.7634321,57.3714723 54.6521709,56.5218416 54.67,55.67 C54.6532961,54.8300663 54.7542763,53.9919304 54.97,53.18 C55.1308822,52.5593383 55.4802576,52.0038314 55.97,51.59 C57.0071605,50.8579181 58.3928395,50.8579181 59.43,51.59 C59.9090004,52.0130617 60.2561456,52.5650226 60.43,53.18 C60.6669955,53.9915971 60.7782859,54.8347057 60.76,55.68 C60.7755864,56.5264657 60.6746399,57.3710514 60.46,58.19 C60.2939061,58.8112201 59.9456174,59.368482 59.46,59.79 C58.954333,60.1792363 58.3275305,60.3775467 57.69,60.35 Z M56.19,55.03 L59.19,55.03 C59.188894,54.487207 59.1217336,53.9465659 58.99,53.42 C58.9193042,53.0723172 58.7490639,52.7526824 58.5,52.5 C58.0233785,52.0982131 57.3266215,52.0982131 56.85,52.5 C56.6006673,52.7510858 56.4333079,53.0718578 56.37,53.42 C56.2542797,53.9489641 56.1939544,54.4885403 56.19,55.03 L56.19,55.03 Z M57.69,59.21 C58.0025935,59.2194309 58.3068721,59.1084587 58.54,58.9 C58.7983417,58.6209765 58.9717862,58.2740874 59.04,57.9 C59.1640856,57.3248722 59.2277644,56.7383573 59.23,56.15 L56.23,56.15 C56.2276202,56.7342593 56.2845791,57.31725 56.4,57.89 C56.4567516,58.2657476 56.627838,58.6149035 56.89,58.89 C57.1062512,59.0945491 57.392336,59.208983 57.69,59.21 Z" id="Shape" fill="#636466"></path>
            <polygon id="Path" fill="#636466" points="63.59 56.53 66.01 54.03 67.55 54.03 65.44 56.26 67.71 60.26 66.2 60.26 64.41 57.17 63.59 57.97 63.59 60.23 62.22 60.23 62.22 51.17 63.59 51.17"></polygon>
            <path d="M71.5,55.1 C71.5,55.0066667 71.47,54.8966667 71.41,54.77 C71.41,54.63 71.34,54.49 71.3,54.34 L71.19,53.93 C71.19,53.8 71.19,53.7 71.12,53.64 L71.12,53.64 C71.12,53.7 71.12,53.8 71.04,53.93 C70.96,54.06 70.98,54.19 70.94,54.34 C70.9,54.49 70.87,54.63 70.83,54.77 C70.8049522,54.8856075 70.7715308,54.9992405 70.73,55.11 L70.24,56.78 L69.14,56.78 L67.96,52.87 L68.96,52.87 L69.49,54.74 C69.49,54.87 69.55,55.01 69.58,55.17 C69.61,55.33 69.64,55.48 69.67,55.62 C69.7,55.76 69.67,55.89 69.73,55.98 L69.73,55.98 C69.73,55.8866667 69.75,55.7666667 69.79,55.62 C69.8103861,55.4748216 69.8404531,55.331168 69.88,55.19 C69.88,55.05 69.94,54.95 69.96,54.87 L70.57,52.87 L71.64,52.87 L72.23,54.87 C72.23,54.95 72.23,55.06 72.31,55.2 L72.4,55.62 C72.4076947,55.7398766 72.4076947,55.8601234 72.4,55.98 L72.4,55.98 C72.4,55.9 72.4,55.79 72.4,55.64 C72.4,55.49 72.46,55.34 72.5,55.18 C72.54,55.02 72.57,54.87 72.61,54.74 L73.3,52.87 L74.3,52.87 L73.1,56.78 L72,56.78 L71.5,55.1 Z" id="Path" fill="#636466"></path>
            <path d="M77.55,53.6 C78.1335382,53.5882701 78.7119014,53.7114717 79.24,53.96 C79.7247302,54.2044904 80.1226726,54.5919607 80.38,55.07 C80.6715198,55.6454377 80.8125707,56.2853273 80.79,56.93 C80.8100859,57.5701003 80.6835266,58.2063172 80.42,58.79 C80.1952554,59.273883 79.8291739,59.6783159 79.37,59.95 C78.8880769,60.2209699 78.3428049,60.3590134 77.79,60.35 C77.2722897,60.3559773 76.7609044,60.2358533 76.3,60 C75.869101,59.7810835 75.5189165,59.430899 75.3,59 C75.0593608,58.505429 74.9426713,57.9597339 74.96,57.41 L74.96,56.63 L79.24,56.63 C79.2585116,56.1333902 79.0827391,55.6491188 78.75,55.28 C78.3932545,54.9411202 77.9109392,54.7670515 77.42,54.8 C77.0471297,54.7968392 76.6749975,54.8337172 76.31,54.91 C75.9664665,54.9995142 75.6317615,55.120008 75.31,55.27 L75.31,54.07 C75.6293037,53.9213288 75.9649242,53.810574 76.31,53.74 C76.7167845,53.6470338 77.1327275,53.6000725 77.55,53.6 Z M76.42,57.67 C76.4228114,57.9410909 76.4771076,58.2091787 76.58,58.46 C76.6655315,58.684841 76.8194181,58.8771993 77.02,59.01 C77.2450305,59.1486501 77.5058117,59.2181917 77.77,59.21 C78.1461659,59.2316092 78.5125068,59.0850728 78.77,58.81 C79.0408678,58.4903969 79.1959054,58.0887086 79.21,57.67 L76.42,57.67 Z" id="Shape" fill="#636466"></path>
            <path d="M81.44,54.03 L82.93,54.03 L84.45,58.67 L84.45,58.67 L85.98,54.02 L87.4,54.02 C86.57,56.29 85.61,58.87 84.81,61.02 C84.31,62.38 83.75,62.9000417 82.65,62.9000417 C82.2226224,62.9021104 81.7986355,62.8240968 81.4,62.67 L81.54,61.67 C81.8619503,61.7830071 82.1990382,61.8470538 82.54,61.86 C82.96,61.86 83.29,61.64 83.54,61.01 L83.8,60.36 L81.44,54.03 Z" id="Path" fill="#636466"></path>
            <path d="M90.6,53.6 C91.1804547,53.5868896 91.7558841,53.7101959 92.28,53.96 C92.7686634,54.1989403 93.168116,54.587881 93.42,55.07 C93.7196609,55.6428186 93.8644431,56.2839967 93.84,56.93 C93.8573074,57.5709075 93.7273042,58.2072389 93.46,58.79 C93.2545172,59.270695 92.9051729,59.6759343 92.46,59.95 C91.981741,60.2210535 91.4396523,60.3591653 90.89,60.35 C90.3385274,60.3742102 89.790333,60.2535385 89.3,60 C88.8678512,59.7828099 88.5171901,59.4321488 88.3,59 C88.0641345,58.5037968 87.947695,57.9592711 87.96,57.41 L87.96,56.63 L92.3,56.63 C92.3094422,56.1348539 92.1348422,55.6538133 91.81,55.28 C91.4482522,54.9426907 90.9636438,54.7690996 90.47,54.8 C90.0971779,54.7978899 89.7251565,54.8347569 89.36,54.91 C89.0164665,54.9995142 88.6817615,55.120008 88.36,55.27 L88.36,54.07 C88.6798881,53.9228086 89.0153353,53.812111 89.36,53.74 C89.7668268,53.6472826 90.1827417,53.6003245 90.6,53.6 Z M89.47,57.67 C89.4744392,57.9399753 89.5251755,58.2071865 89.62,58.46 C89.7093492,58.6855545 89.8666049,58.8777559 90.07,59.01 C90.2919288,59.1473028 90.5491207,59.2168141 90.81,59.21 C91.1857115,59.2288525 91.5509347,59.0827632 91.81,58.81 C92.0990081,58.4972901 92.2719715,58.0948854 92.3,57.67 L89.47,57.67 Z" id="Shape" fill="#636466"></path>
            <path d="M96.68,60.23 L95.3,60.23 L95.3,54.03 L96.49,54.03 L96.49,54.66 C97.0508394,54.1852745 97.7556077,53.9139387 98.49,53.89 C99.1308433,53.7918609 99.761596,54.1193671 100.05,54.7 C100.620724,54.1843582 101.360861,53.8961321 102.13,53.89 C103.4,53.89 103.92,54.6 103.92,55.99 L103.92,60.23 L102.55,60.23 L102.55,56.23 C102.55,55.49 102.37,55.07 101.68,55.07 C101.161438,55.1161733 100.671065,55.326333 100.28,55.67 C100.28,55.77 100.28,55.89 100.28,56 L100.28,60.26 L98.9,60.26 L98.9,56.26 C98.9,55.52 98.73,55.1 98.05,55.1 C97.5108813,55.146194 97.0016633,55.3674404 96.6,55.73 L96.68,60.23 Z" id="Path" fill="#636466"></path>
            <path d="M125.07,60.23 C125.063405,59.8590408 125.083456,59.4880868 125.13,59.12 L125.13,59.12 C124.783695,59.9069695 123.988876,60.399757 123.13,60.36 C122.677469,60.3840902 122.236379,60.2127108 121.91882,59.8894133 C121.601262,59.5661159 121.437809,59.1220269 121.47,58.67 C121.47,57.33 122.8,56.61 124.98,56.61 L124.98,56.36 C124.98,55.52 124.68,55.12 123.81,55.12 C123.188524,55.1425693 122.577287,55.2851911 122.01,55.54 L121.78,54.54 C122.486602,54.2724228 123.234501,54.1302881 123.99,54.12 C125.73,54.12 126.27,54.92 126.27,56.21 L126.27,58.57 C126.27,59.09 126.27,59.7 126.27,60.21 L125.07,60.23 Z M124.98,57.49 C123.21,57.49 122.72,57.97 122.72,58.49 C122.708338,58.708192 122.789925,58.9210645 122.94443,59.0755698 C123.098936,59.230075 123.311808,59.3116623 123.53,59.3 C124.368642,59.2262263 125.004418,58.5115266 124.98,57.67 L124.98,57.49 Z" id="Shape" fill="#636466"></path>
            <path d="M129.94,60.33 C128.67,60.33 128.29,59.84 128.29,58.51 L128.29,55.26 L127.15,55.26 L127.15,54.26 L128.3,54.26 L128.3,52.37 L129.58,52.02 L129.58,54.26 L131.14,54.26 L131.14,55.26 L129.58,55.26 L129.58,58.11 C129.58,59 129.76,59.24 130.36,59.24 C130.605539,59.2403283 130.85036,59.2134985 131.09,59.16 L131.2,60.16 C130.786807,60.2590107 130.364658,60.3159673 129.94,60.33 Z" id="Path" fill="#636466"></path>
            <path d="M142.97,60.23 L142.3,55.88 C142.19,55.07 142.11,54.36 142.05,53.88 L142.05,53.88 C141.95,54.33 141.81,54.88 141.61,55.55 L140.07,60.27 L138.75,60.27 L137.3,55.82 C137.09259,55.1626613 136.919029,54.4951179 136.78,53.82 L136.78,53.82 C136.72,54.51 136.65,55.22 136.56,55.98 L136.04,60.21 L134.72,60.21 L135.93,52.11 L137.49,52.11 L139.05,56.81 C139.231924,57.35501 139.385464,57.9090873 139.51,58.47 L139.51,58.47 C139.66,57.87 139.81,57.32 139.96,56.86 L141.55,52.11 L143.12,52.11 L144.35,60.21 L142.97,60.23 Z" id="Path" fill="#636466"></path>
            <path d="M149.54,60.23 C149.537107,59.8352191 149.563849,59.4407779 149.62,59.05 L149.62,59.05 C149.259329,59.8692818 148.43448,60.3848129 147.54,60.35 C146.19,60.35 145.77,59.48 145.77,58.44 L145.77,54.26 L147.04,54.26 L147.04,58.09 C147.04,58.83 147.24,59.28 147.93,59.28 C148.83,59.28 149.49,58.28 149.49,57.13 L149.49,54.26 L150.77,54.26 L150.77,60.26 L149.54,60.23 Z" id="Path" fill="#636466"></path>
            <path d="M153.64,60.35 C153.19439,60.3524078 152.750459,60.2952348 152.32,60.18 L152.42,59.09 C152.837459,59.2375402 153.27724,59.3119646 153.72,59.31 C154.4,59.31 154.86,59.01 154.86,58.53 C154.86,57.31 152.25,58.05 152.25,55.99 C152.25,54.99 153.04,54.14 154.68,54.14 C155.05958,54.1447523 155.437888,54.1849266 155.81,54.26 L155.74,55.26 C155.374021,55.1468484 154.993071,55.0895373 154.61,55.09 C153.9,55.09 153.61,55.38 153.61,55.83 C153.61,57.01 156.25,56.36 156.25,58.36 C156.21,59.53 155.22,60.35 153.64,60.35 Z" id="Path" fill="#636466"></path>
            <path d="M161.23,63.15 L161.23,60.24 C161.228289,59.8681104 161.258398,59.4967561 161.32,59.13 L161.32,59.13 C161.007297,59.8796643 160.272248,60.3657452 159.46,60.36 C158.04,60.36 157.25,59.36 157.25,57.56 C157.25,55.5 158.41,54.18 160.44,54.18 C161.140272,54.1761311 161.839559,54.2330109 162.53,54.35 L162.53,63.16 L161.23,63.15 Z M161.23,55.28 C160.92147,55.2111446 160.606111,55.1775957 160.29,55.18 C159.29,55.18 158.57,55.81 158.57,57.42 C158.57,58.62 158.94,59.29 159.75,59.29 C160.75,59.29 161.23,58.16 161.23,57.12 L161.23,55.28 Z" id="Shape" fill="#636466"></path>
            <path d="M168.16,60.23 C168.157107,59.8352191 168.183849,59.4407779 168.24,59.05 L168.24,59.05 C167.880687,59.8657971 167.060894,60.3806434 166.17,60.35 C164.81,60.35 164.39,59.48 164.39,58.44 L164.39,54.26 L165.66,54.26 L165.66,58.09 C165.66,58.83 165.87,59.28 166.55,59.28 C167.45,59.28 168.11,58.28 168.11,57.13 L168.11,54.26 L169.39,54.26 L169.39,60.26 L168.16,60.23 Z" id="Path" fill="#636466"></path>
            <path d="M175.89,57.4 L172.1,57.4 C172.1,58.69 172.64,59.31 173.86,59.31 C174.446537,59.3074529 175.0271,59.1920193 175.57,58.97 L175.74,59.97 C175.065815,60.2257298 174.351054,60.357842 173.63,60.36 C171.8,60.36 170.78,59.36 170.78,57.3 C170.78,55.51 171.78,54.15 173.52,54.15 C174.193886,54.0967885 174.855987,54.3493779 175.323198,54.8379138 C175.790409,55.3264497 176.013216,55.9991583 175.93,56.67 C175.928542,56.9138389 175.915192,57.1574616 175.89,57.4 Z M173.45,55.1 C172.73,55.1 172.22,55.63 172.11,56.51 L174.65,56.51 C174.67,55.67 174.21,55.1 173.45,55.1 Z" id="Shape" fill="#636466"></path>
            <path d="M180.57,60.23 C180.563405,59.8590408 180.583456,59.4880868 180.63,59.12 L180.63,59.12 C180.285953,59.9089275 179.489626,60.4026503 178.63,60.36 C178.177469,60.3840902 177.736379,60.2127108 177.41882,59.8894133 C177.101262,59.5661159 176.937809,59.1220269 176.97,58.67 C176.97,57.33 178.3,56.61 180.48,56.61 L180.48,56.36 C180.48,55.52 180.18,55.12 179.31,55.12 C178.688524,55.1425693 178.077287,55.2851911 177.51,55.54 L177.28,54.54 C177.986602,54.2724228 178.734501,54.1302881 179.49,54.12 C181.23,54.12 181.77,54.92 181.77,56.21 L181.77,58.57 C181.77,59.09 181.77,59.7 181.77,60.21 L180.57,60.23 Z M180.48,57.49 C178.71,57.49 178.22,57.97 178.22,58.49 C178.208338,58.708192 178.289925,58.9210645 178.44443,59.0755698 C178.598936,59.230075 178.811808,59.3116623 179.03,59.3 C179.868642,59.2262263 180.504418,58.5115266 180.48,57.67 L180.48,57.49 Z" id="Shape" fill="#636466"></path>
            <path d="M190.99,60.23 L190.99,56.42 C190.99,55.69 190.81,55.21 190.13,55.21 C189.45,55.21 188.59,56.06 188.59,57.38 L188.59,60.23 L187.3,60.23 L187.3,56.42 C187.3,55.74 187.16,55.21 186.44,55.21 C185.72,55.21 184.92,56.12 184.92,57.38 L184.92,60.23 L183.63,60.23 L183.63,54.23 L184.86,54.23 C184.858741,54.6249988 184.828661,55.0193793 184.77,55.41 L184.77,55.41 C185.11003,54.6087453 185.899622,54.0915625 186.77,54.1 C187.577922,54.0215756 188.306469,54.5877356 188.43,55.39 C188.780379,54.6001635 189.56596,54.0934638 190.43,54.1 C191.57,54.1 192.2,54.73 192.2,56.1 L192.2,60.22 L190.99,60.23 Z" id="Path" fill="#636466"></path>
            <path d="M17.47,48.02 C17.4605434,47.8399872 17.5298997,47.6647715 17.66,47.54 C17.793951,47.4267568 17.9646339,47.3663066 18.14,47.37 C18.3721472,47.3601911 18.5963101,47.455736 18.75,47.63 C18.9081839,47.820389 18.9901351,48.0626796 18.98,48.31 C18.9873368,48.6856579 18.838935,49.0476135 18.57,49.31 C18.2414625,49.5878625 17.8197809,49.7308054 17.39,49.71 L17.39,49.2 C17.5979023,49.2040362 17.8026212,49.1485193 17.98,49.04 C18.0988249,48.971554 18.174306,48.8470102 18.18,48.71 C17.9922645,48.7029727 17.8124663,48.6324636 17.67,48.51 C17.5398995,48.3803761 17.4677622,48.2036396 17.47,48.02 Z" id="Path" fill="#636466"></path>
            <path d="M83.69,51 C83.6762604,50.8193121 83.7463149,50.6423323 83.88,50.52 C84.0113915,50.4023704 84.1838622,50.341287 84.36,50.35 C84.5873445,50.3392887 84.8075229,50.4310297 84.96,50.6 C85.1205562,50.7929779 85.2026582,51.039284 85.19,51.29 C85.1973368,51.6656579 85.048935,52.0276135 84.78,52.29 C84.4509781,52.5660533 84.0287247,52.7056116 83.6,52.68 L83.6,52.18 C83.8076984,52.1824084 84.0119748,52.1270114 84.19,52.02 C84.3100763,51.9512983 84.3886202,51.8278722 84.4,51.69 C84.212427,51.6821975 84.0328741,51.6117846 83.89,51.49 C83.7578976,51.3617181 83.6853929,51.1840816 83.69,51 Z" id="Path" fill="#636466"></path>
            <polygon id="Path" fill="#636466" points="112.3 63.19 112.3 51.19 113.15 51.19 113.15 63.19"></polygon>
        </g>
    </g>
</svg>